<svg width="59" height="94" viewBox="0 0 59 94" fill="none" xmlns="http://www.w3.org/2000/svg">
<path d="M1.52564 66.6062L8.84171 79.278L14.4953 77.0078L35.4896 80.4306C37.5385 80.7647 39.6399 80.3801 41.4378 79.3421L53.5257 72.3632C54.5043 71.7982 55.1732 70.8192 55.3439 69.7021C55.6547 67.6687 54.257 65.7687 52.2232 65.46L51.8406 65.4019C50.9433 65.2657 50.0263 65.4387 49.2403 65.8925L39.6996 71.4009C37.0949 72.9047 33.9129 73.0069 31.198 71.7126C28.9349 70.6337 26.1262 69.3151 23.2204 67.9949C17.8256 65.5439 21.6042 64.6212 24.1679 64.4663L35.7321 70.7099C40.2091 68.1251 38.172 66.3197 30.023 59.0981C21.8739 51.8765 7.62932 61.0945 1.52564 66.6062Z" fill="#F1F8FA" stroke="#5ED5D9" stroke-width="2"/>
<path d="M32.4938 2.875V4.21416C30.8991 4.26705 29.6187 5.58017 29.6187 7.1875C29.6187 8.79483 30.8991 10.108 32.4938 10.1608V13.6562V13.7563H32.5938H38.3438H38.4438V13.6562V12.2188C38.4438 11.4812 39.0437 10.8813 39.7812 10.8813C40.5188 10.8813 41.1187 11.4812 41.1187 12.2188V13.6562V13.7563H41.2188H44.8125C46.0565 13.7563 47.0688 12.744 47.0688 11.5V2.875C47.0688 1.63096 46.0565 0.61875 44.8125 0.61875H34.75C33.506 0.61875 32.4938 1.63096 32.4938 2.875ZM36.8079 12.1187H34.1312V8.625V8.525H34.0312H32.5938C31.8562 8.525 31.2563 7.92505 31.2563 7.1875C31.2563 6.44995 31.8562 5.85 32.5938 5.85H34.0312H34.1312V5.75V2.875C34.1312 2.53413 34.4085 2.25625 34.75 2.25625H44.8125C45.154 2.25625 45.4312 2.53413 45.4312 2.875V11.5C45.4312 11.8409 45.154 12.1187 44.8125 12.1187H42.7546C42.7017 10.5241 41.3886 9.24375 39.7812 9.24375C38.1739 9.24375 36.8608 10.5241 36.8079 12.1187Z" fill="#3D8DA8" stroke="#3D8DA8" stroke-width="0.2"/>
<path d="M32.5938 14.9937C30.9864 14.9937 29.6733 16.2741 29.6204 17.8687H26.9438V14.375V14.275H26.8438H25.4062C24.6687 14.275 24.0688 13.6751 24.0688 12.9375C24.0688 12.1999 24.6687 11.6 25.4062 11.6H26.8438H26.9438V11.5V5.03125V4.93125H26.8438H24.9168C17.2054 4.93125 10.9312 11.2054 10.9312 18.9168C10.9312 23.1285 12.8012 27.0741 16.061 29.7409L18.8375 32.0131V33.8449C17.9998 34.1734 17.4 34.9831 17.4 35.9382C17.4 36.9408 18.0597 37.7838 18.9642 38.0764C18.8837 38.3066 18.8375 38.5537 18.8375 38.8125C18.8375 39.7855 19.4599 40.6062 20.3223 40.9226C20.6533 43.4348 22.8052 45.3812 25.4062 45.3812C28.0073 45.3812 30.1592 43.4348 30.4902 40.9226C31.3526 40.6062 31.975 39.7855 31.975 38.8125C31.975 38.5535 31.9288 38.3063 31.8482 38.0756C32.7527 37.7825 33.4125 36.9402 33.4125 35.9375C33.4125 34.9823 32.8127 34.1727 31.975 33.8442V32.0123L34.7515 29.7402C34.7515 29.7402 34.7515 29.7402 34.7515 29.7402C38.0113 27.0741 39.8813 23.1285 39.8813 18.9168V17.9688V17.8687H39.7812H35.5671C35.5142 16.2741 34.2011 14.9937 32.5938 14.9937ZM25.3062 28.1296V33.6812H20.475V31.2843V31.2369L20.4383 31.2069L17.0976 28.4735L17.0343 28.5509L17.0976 28.4735C14.3716 26.2432 12.747 23.0016 12.5832 19.5063H18.2188H18.3187V19.4062V17.9688C18.3187 17.2312 18.9187 16.6313 19.6562 16.6313C20.3938 16.6313 20.9937 17.2312 20.9937 17.9688V19.4062V19.5063H21.0938H25.3062V22.1829C23.7116 22.2358 22.4312 23.5489 22.4312 25.1562C22.4312 26.7636 23.7116 28.0767 25.3062 28.1296ZM30.3742 31.2069L30.3375 31.2369V31.2843V33.6812H26.9438V26.5938V26.4937H26.8438H25.4062C24.6687 26.4937 24.0688 25.8938 24.0688 25.1562C24.0688 24.4187 24.6687 23.8188 25.4062 23.8188H26.8438H26.9438V23.7188V19.5063H31.1562H31.2563V19.4062V17.9688C31.2563 17.2312 31.8562 16.6313 32.5938 16.6313C33.3313 16.6313 33.9312 17.2312 33.9312 17.9688V19.4062V19.5063H34.0312H38.2293C38.0655 23.0016 36.4409 26.2432 33.7149 28.4735L30.3742 31.2069ZM24.9168 6.56875H25.3062V9.96416C23.7116 10.017 22.4312 11.3302 22.4312 12.9375C22.4312 14.5448 23.7116 15.858 25.3062 15.9108V17.8687H22.6296C22.5767 16.2741 21.2636 14.9937 19.6562 14.9937C18.0489 14.9937 16.7358 16.2741 16.6829 17.8687H12.613C13.1465 11.5487 18.4612 6.56875 24.9168 6.56875ZM25.4062 43.7438C23.7624 43.7438 22.3795 42.6013 22.0098 41.0687H28.8027C28.433 42.6013 27.0501 43.7438 25.4062 43.7438ZM29.7188 39.4313H21.0938C20.7523 39.4313 20.475 39.1534 20.475 38.8125C20.475 38.4716 20.7523 38.1937 21.0938 38.1937H29.7188C30.0602 38.1937 30.3375 38.4716 30.3375 38.8125C30.3375 39.1534 30.0602 39.4313 29.7188 39.4313ZM31.1562 36.5562H29.7188H21.0938H19.6562C19.3148 36.5562 19.0375 36.2784 19.0375 35.9375C19.0375 35.5966 19.3148 35.3188 19.6562 35.3188H31.1562C31.4977 35.3188 31.775 35.5966 31.775 35.9375C31.775 36.2784 31.4977 36.5562 31.1562 36.5562Z" fill="#3D8DA8" stroke="#3D8DA8" stroke-width="0.2"/>
</svg>
