<svg width="59" height="94" viewBox="0 0 59 94" fill="none" xmlns="http://www.w3.org/2000/svg">
<path d="M1.52564 66.6062L8.84171 79.278L14.4953 77.0078L35.4896 80.4306C37.5385 80.7647 39.6399 80.3801 41.4378 79.3421L53.5257 72.3632C54.5043 71.7982 55.1732 70.8192 55.3439 69.7021C55.6547 67.6687 54.257 65.7687 52.2232 65.46L51.8406 65.4019C50.9433 65.2657 50.0263 65.4387 49.2403 65.8925L39.6996 71.4009C37.0949 72.9047 33.9129 73.0069 31.198 71.7126C28.9349 70.6337 26.1262 69.3151 23.2204 67.9949C17.8256 65.5439 21.6042 64.6212 24.1679 64.4663L35.7321 70.7099C40.2091 68.1251 38.172 66.3197 30.023 59.0981C21.8739 51.8765 7.62932 61.0945 1.52564 66.6062Z" fill="#F1F8FA" stroke="#5ED5D9" stroke-width="2"/>
<g clip-path="url(#clip0_6398_15440)">
<mask id="path-2-outside-1_6398_15440" maskUnits="userSpaceOnUse" x="6" y="1.58594" width="48" height="43" fill="black">
<rect fill="white" x="6" y="1.58594" width="48" height="43"/>
<path d="M53 12.4743C52.9999 12.3075 52.9336 12.1476 52.8157 12.0297C52.6978 11.9117 52.5379 11.8455 52.3711 11.8454H51.5625C49.5184 11.8453 47.484 12.1275 45.5171 12.6841C45.3679 10.6461 44.9375 8.63855 44.2381 6.71851L43.9617 5.95844C43.9045 5.80173 43.7875 5.67412 43.6363 5.60364C43.4851 5.53316 43.3121 5.52557 43.1553 5.58253L42.3956 5.85925C39.8878 6.76788 37.5656 8.12396 35.5419 9.86161C34.4383 7.43163 32.9053 5.22068 31.0167 3.335L30.4449 2.76323C30.3248 2.64939 30.1655 2.58594 30 2.58594C29.8345 2.58594 29.6753 2.64939 29.5551 2.76323L28.9837 3.335C27.0949 5.22067 25.5618 7.43162 24.4581 9.86161C22.4344 8.12383 20.1123 6.76763 17.6044 5.85889L16.8447 5.58217C16.6879 5.52511 16.5149 5.53266 16.3637 5.60315C16.2124 5.67364 16.0954 5.80131 16.0383 5.95808L15.7619 6.71815C15.0625 8.63819 14.6321 10.6458 14.4829 12.6838C12.516 12.1273 10.4816 11.8452 8.4375 11.8454H7.62891C7.46214 11.8455 7.30223 11.9117 7.18431 12.0297C7.06639 12.1476 7.0001 12.3075 7 12.4743V13.2829C6.99735 19.0226 9.22687 24.5384 13.2172 28.6641C11.1307 29.5466 9.23528 30.8257 7.6361 32.4304L7.18436 32.8839C7.12592 32.9422 7.07956 33.0115 7.04793 33.0878C7.0163 33.1641 7.00002 33.2459 7.00002 33.3284C7.00002 33.411 7.0163 33.4928 7.04793 33.5691C7.07956 33.6453 7.12592 33.7146 7.18436 33.773L7.6361 34.2236C9.92918 36.5315 12.8174 38.1582 15.9796 38.923C19.1418 39.6877 22.4542 39.5605 25.5484 38.5555C26.5006 40.1771 27.6548 41.6712 28.9833 43.0021C29.1168 43.1356 29.2753 43.2415 29.4497 43.3137C29.6241 43.386 29.811 43.4232 29.9998 43.4232C30.1886 43.4232 30.3755 43.386 30.5499 43.3137C30.7244 43.2415 30.8828 43.1356 31.0163 43.0021C32.3451 41.6715 33.4994 40.1773 34.4512 38.5555C37.5455 39.5606 40.858 39.6878 44.0202 38.923C47.1825 38.1583 50.0708 36.5315 52.3639 34.2236L52.8156 33.7715C52.8741 33.7132 52.9204 33.6439 52.9521 33.5676C52.9837 33.4913 53 33.4096 53 33.327C53 33.2444 52.9837 33.1627 52.9521 33.0864C52.9204 33.0101 52.8741 32.9408 52.8156 32.8825L52.3639 32.4304C50.7649 30.825 48.8695 29.5454 46.7828 28.6623C50.7727 24.537 53.0022 19.022 53 13.2829V12.4743ZM42.8257 7.03979L42.9946 6.97834L43.0561 7.14725C43.7489 9.05295 44.1605 11.0494 44.278 13.0737C41.7779 13.9443 39.4543 15.2566 37.4179 16.9481C37.2324 14.9415 36.773 12.9697 36.0522 11.0878C38.0311 9.31861 40.3303 7.94456 42.8257 7.03979ZM29.8731 4.22445L30 4.09795L30.1272 4.22517C32.0963 6.1889 33.6536 8.52594 34.7078 11.0993C34.7144 11.1192 34.7219 11.1387 34.7305 11.1579C35.7423 13.6583 36.2607 16.3308 36.2571 19.0282C36.2645 21.778 35.7266 24.502 34.6743 27.0426C33.6221 29.5831 32.0764 31.8898 30.1269 33.829L30 33.9559L29.8728 33.829C26.9661 30.9184 24.9798 27.2171 24.161 23.1859C23.3423 19.1548 23.7273 14.9718 25.2681 11.1579C25.2767 11.1387 25.2842 11.1192 25.2908 11.0993C26.3453 8.52547 27.9032 6.18815 29.8731 4.22445ZM16.9439 7.14725L17.0054 6.97834L17.1743 7.03979C19.6693 7.94468 21.9682 9.31873 23.9467 11.0878C23.226 12.9697 22.7665 14.9415 22.5811 16.9481C20.5445 15.2566 18.2208 13.9443 15.7206 13.0737C15.8385 11.0493 16.2506 9.05288 16.9439 7.14725ZM8.25781 13.1032H8.4375C13.6374 13.0991 18.6512 15.0376 22.4959 18.5387C22.4923 18.7015 22.4837 18.8622 22.4837 19.0267C22.4697 24.6662 24.6189 30.0964 28.4885 34.1988C23.0641 34.0113 17.9241 31.7263 14.1506 27.825C10.3771 23.9237 8.26463 18.7105 8.25781 13.2829V13.1032ZM8.52555 33.336L8.51836 33.3288L8.52555 33.3216C10.1366 31.7056 12.0698 30.4468 14.1994 29.6272C18.2588 33.3659 23.57 35.4506 29.0886 35.4714C28.0308 36.1652 26.8964 36.7346 25.708 37.1684C25.643 37.1798 25.5804 37.2018 25.5226 37.2334C25.5176 37.2362 25.5129 37.2395 25.5085 37.2431C22.5972 38.2592 19.4579 38.4313 16.4529 37.7396C13.4479 37.048 10.6998 35.5208 8.52555 33.3342V33.336ZM30.1269 42.1126C30.1124 42.1328 30.0933 42.1493 30.0712 42.1606C30.0491 42.172 30.0247 42.1779 29.9998 42.1779C29.975 42.1779 29.9505 42.172 29.9284 42.1606C29.9063 42.1493 29.8873 42.1328 29.8728 42.1126C28.6736 40.9126 27.6246 39.5713 26.7491 38.1182C27.8901 37.652 28.9796 37.0685 30 36.377C31.0203 37.0686 32.1098 37.6522 33.2509 38.1182C32.3753 39.5714 31.3263 40.9127 30.1269 42.1126ZM51.4816 33.327L51.4745 33.3342C49.3003 35.5206 46.5523 37.0478 43.5474 37.7394C40.5426 38.4311 37.4034 38.259 34.4922 37.2431C34.4872 37.2402 34.4832 37.2363 34.4782 37.2338C34.4204 37.2025 34.3581 37.1805 34.2935 37.1687C33.1046 36.7349 31.9697 36.1654 30.9114 35.4714C36.4301 35.4505 41.7413 33.3656 45.8006 29.6269C47.9301 30.4459 49.8633 31.7041 51.4745 33.3195L51.4816 33.327ZM51.7422 13.2829C51.7353 18.7105 49.6227 23.9237 45.8491 27.8249C42.0756 31.7261 36.9356 34.011 31.5112 34.1985C35.3811 30.0962 37.5304 24.666 37.5163 19.0264C37.5163 18.8629 37.5077 18.7012 37.5041 18.5384C41.3488 15.0374 46.3627 13.099 51.5625 13.1032H51.7422V13.2829Z"/>
</mask>
<path d="M53 12.4743C52.9999 12.3075 52.9336 12.1476 52.8157 12.0297C52.6978 11.9117 52.5379 11.8455 52.3711 11.8454H51.5625C49.5184 11.8453 47.484 12.1275 45.5171 12.6841C45.3679 10.6461 44.9375 8.63855 44.2381 6.71851L43.9617 5.95844C43.9045 5.80173 43.7875 5.67412 43.6363 5.60364C43.4851 5.53316 43.3121 5.52557 43.1553 5.58253L42.3956 5.85925C39.8878 6.76788 37.5656 8.12396 35.5419 9.86161C34.4383 7.43163 32.9053 5.22068 31.0167 3.335L30.4449 2.76323C30.3248 2.64939 30.1655 2.58594 30 2.58594C29.8345 2.58594 29.6753 2.64939 29.5551 2.76323L28.9837 3.335C27.0949 5.22067 25.5618 7.43162 24.4581 9.86161C22.4344 8.12383 20.1123 6.76763 17.6044 5.85889L16.8447 5.58217C16.6879 5.52511 16.5149 5.53266 16.3637 5.60315C16.2124 5.67364 16.0954 5.80131 16.0383 5.95808L15.7619 6.71815C15.0625 8.63819 14.6321 10.6458 14.4829 12.6838C12.516 12.1273 10.4816 11.8452 8.4375 11.8454H7.62891C7.46214 11.8455 7.30223 11.9117 7.18431 12.0297C7.06639 12.1476 7.0001 12.3075 7 12.4743V13.2829C6.99735 19.0226 9.22687 24.5384 13.2172 28.6641C11.1307 29.5466 9.23528 30.8257 7.6361 32.4304L7.18436 32.8839C7.12592 32.9422 7.07956 33.0115 7.04793 33.0878C7.0163 33.1641 7.00002 33.2459 7.00002 33.3284C7.00002 33.411 7.0163 33.4928 7.04793 33.5691C7.07956 33.6453 7.12592 33.7146 7.18436 33.773L7.6361 34.2236C9.92918 36.5315 12.8174 38.1582 15.9796 38.923C19.1418 39.6877 22.4542 39.5605 25.5484 38.5555C26.5006 40.1771 27.6548 41.6712 28.9833 43.0021C29.1168 43.1356 29.2753 43.2415 29.4497 43.3137C29.6241 43.386 29.811 43.4232 29.9998 43.4232C30.1886 43.4232 30.3755 43.386 30.5499 43.3137C30.7244 43.2415 30.8828 43.1356 31.0163 43.0021C32.3451 41.6715 33.4994 40.1773 34.4512 38.5555C37.5455 39.5606 40.858 39.6878 44.0202 38.923C47.1825 38.1583 50.0708 36.5315 52.3639 34.2236L52.8156 33.7715C52.8741 33.7132 52.9204 33.6439 52.9521 33.5676C52.9837 33.4913 53 33.4096 53 33.327C53 33.2444 52.9837 33.1627 52.9521 33.0864C52.9204 33.0101 52.8741 32.9408 52.8156 32.8825L52.3639 32.4304C50.7649 30.825 48.8695 29.5454 46.7828 28.6623C50.7727 24.537 53.0022 19.022 53 13.2829V12.4743ZM42.8257 7.03979L42.9946 6.97834L43.0561 7.14725C43.7489 9.05295 44.1605 11.0494 44.278 13.0737C41.7779 13.9443 39.4543 15.2566 37.4179 16.9481C37.2324 14.9415 36.773 12.9697 36.0522 11.0878C38.0311 9.31861 40.3303 7.94456 42.8257 7.03979ZM29.8731 4.22445L30 4.09795L30.1272 4.22517C32.0963 6.1889 33.6536 8.52594 34.7078 11.0993C34.7144 11.1192 34.7219 11.1387 34.7305 11.1579C35.7423 13.6583 36.2607 16.3308 36.2571 19.0282C36.2645 21.778 35.7266 24.502 34.6743 27.0426C33.6221 29.5831 32.0764 31.8898 30.1269 33.829L30 33.9559L29.8728 33.829C26.9661 30.9184 24.9798 27.2171 24.161 23.1859C23.3423 19.1548 23.7273 14.9718 25.2681 11.1579C25.2767 11.1387 25.2842 11.1192 25.2908 11.0993C26.3453 8.52547 27.9032 6.18815 29.8731 4.22445ZM16.9439 7.14725L17.0054 6.97834L17.1743 7.03979C19.6693 7.94468 21.9682 9.31873 23.9467 11.0878C23.226 12.9697 22.7665 14.9415 22.5811 16.9481C20.5445 15.2566 18.2208 13.9443 15.7206 13.0737C15.8385 11.0493 16.2506 9.05288 16.9439 7.14725ZM8.25781 13.1032H8.4375C13.6374 13.0991 18.6512 15.0376 22.4959 18.5387C22.4923 18.7015 22.4837 18.8622 22.4837 19.0267C22.4697 24.6662 24.6189 30.0964 28.4885 34.1988C23.0641 34.0113 17.9241 31.7263 14.1506 27.825C10.3771 23.9237 8.26463 18.7105 8.25781 13.2829V13.1032ZM8.52555 33.336L8.51836 33.3288L8.52555 33.3216C10.1366 31.7056 12.0698 30.4468 14.1994 29.6272C18.2588 33.3659 23.57 35.4506 29.0886 35.4714C28.0308 36.1652 26.8964 36.7346 25.708 37.1684C25.643 37.1798 25.5804 37.2018 25.5226 37.2334C25.5176 37.2362 25.5129 37.2395 25.5085 37.2431C22.5972 38.2592 19.4579 38.4313 16.4529 37.7396C13.4479 37.048 10.6998 35.5208 8.52555 33.3342V33.336ZM30.1269 42.1126C30.1124 42.1328 30.0933 42.1493 30.0712 42.1606C30.0491 42.172 30.0247 42.1779 29.9998 42.1779C29.975 42.1779 29.9505 42.172 29.9284 42.1606C29.9063 42.1493 29.8873 42.1328 29.8728 42.1126C28.6736 40.9126 27.6246 39.5713 26.7491 38.1182C27.8901 37.652 28.9796 37.0685 30 36.377C31.0203 37.0686 32.1098 37.6522 33.2509 38.1182C32.3753 39.5714 31.3263 40.9127 30.1269 42.1126ZM51.4816 33.327L51.4745 33.3342C49.3003 35.5206 46.5523 37.0478 43.5474 37.7394C40.5426 38.4311 37.4034 38.259 34.4922 37.2431C34.4872 37.2402 34.4832 37.2363 34.4782 37.2338C34.4204 37.2025 34.3581 37.1805 34.2935 37.1687C33.1046 36.7349 31.9697 36.1654 30.9114 35.4714C36.4301 35.4505 41.7413 33.3656 45.8006 29.6269C47.9301 30.4459 49.8633 31.7041 51.4745 33.3195L51.4816 33.327ZM51.7422 13.2829C51.7353 18.7105 49.6227 23.9237 45.8491 27.8249C42.0756 31.7261 36.9356 34.011 31.5112 34.1985C35.3811 30.0962 37.5304 24.666 37.5163 19.0264C37.5163 18.8629 37.5077 18.7012 37.5041 18.5384C41.3488 15.0374 46.3627 13.099 51.5625 13.1032H51.7422V13.2829Z" fill="#3D8DA8"/>
<path d="M53 12.4743C52.9999 12.3075 52.9336 12.1476 52.8157 12.0297C52.6978 11.9117 52.5379 11.8455 52.3711 11.8454H51.5625C49.5184 11.8453 47.484 12.1275 45.5171 12.6841C45.3679 10.6461 44.9375 8.63855 44.2381 6.71851L43.9617 5.95844C43.9045 5.80173 43.7875 5.67412 43.6363 5.60364C43.4851 5.53316 43.3121 5.52557 43.1553 5.58253L42.3956 5.85925C39.8878 6.76788 37.5656 8.12396 35.5419 9.86161C34.4383 7.43163 32.9053 5.22068 31.0167 3.335L30.4449 2.76323C30.3248 2.64939 30.1655 2.58594 30 2.58594C29.8345 2.58594 29.6753 2.64939 29.5551 2.76323L28.9837 3.335C27.0949 5.22067 25.5618 7.43162 24.4581 9.86161C22.4344 8.12383 20.1123 6.76763 17.6044 5.85889L16.8447 5.58217C16.6879 5.52511 16.5149 5.53266 16.3637 5.60315C16.2124 5.67364 16.0954 5.80131 16.0383 5.95808L15.7619 6.71815C15.0625 8.63819 14.6321 10.6458 14.4829 12.6838C12.516 12.1273 10.4816 11.8452 8.4375 11.8454H7.62891C7.46214 11.8455 7.30223 11.9117 7.18431 12.0297C7.06639 12.1476 7.0001 12.3075 7 12.4743V13.2829C6.99735 19.0226 9.22687 24.5384 13.2172 28.6641C11.1307 29.5466 9.23528 30.8257 7.6361 32.4304L7.18436 32.8839C7.12592 32.9422 7.07956 33.0115 7.04793 33.0878C7.0163 33.1641 7.00002 33.2459 7.00002 33.3284C7.00002 33.411 7.0163 33.4928 7.04793 33.5691C7.07956 33.6453 7.12592 33.7146 7.18436 33.773L7.6361 34.2236C9.92918 36.5315 12.8174 38.1582 15.9796 38.923C19.1418 39.6877 22.4542 39.5605 25.5484 38.5555C26.5006 40.1771 27.6548 41.6712 28.9833 43.0021C29.1168 43.1356 29.2753 43.2415 29.4497 43.3137C29.6241 43.386 29.811 43.4232 29.9998 43.4232C30.1886 43.4232 30.3755 43.386 30.5499 43.3137C30.7244 43.2415 30.8828 43.1356 31.0163 43.0021C32.3451 41.6715 33.4994 40.1773 34.4512 38.5555C37.5455 39.5606 40.858 39.6878 44.0202 38.923C47.1825 38.1583 50.0708 36.5315 52.3639 34.2236L52.8156 33.7715C52.8741 33.7132 52.9204 33.6439 52.9521 33.5676C52.9837 33.4913 53 33.4096 53 33.327C53 33.2444 52.9837 33.1627 52.9521 33.0864C52.9204 33.0101 52.8741 32.9408 52.8156 32.8825L52.3639 32.4304C50.7649 30.825 48.8695 29.5454 46.7828 28.6623C50.7727 24.537 53.0022 19.022 53 13.2829V12.4743ZM42.8257 7.03979L42.9946 6.97834L43.0561 7.14725C43.7489 9.05295 44.1605 11.0494 44.278 13.0737C41.7779 13.9443 39.4543 15.2566 37.4179 16.9481C37.2324 14.9415 36.773 12.9697 36.0522 11.0878C38.0311 9.31861 40.3303 7.94456 42.8257 7.03979ZM29.8731 4.22445L30 4.09795L30.1272 4.22517C32.0963 6.1889 33.6536 8.52594 34.7078 11.0993C34.7144 11.1192 34.7219 11.1387 34.7305 11.1579C35.7423 13.6583 36.2607 16.3308 36.2571 19.0282C36.2645 21.778 35.7266 24.502 34.6743 27.0426C33.6221 29.5831 32.0764 31.8898 30.1269 33.829L30 33.9559L29.8728 33.829C26.9661 30.9184 24.9798 27.2171 24.161 23.1859C23.3423 19.1548 23.7273 14.9718 25.2681 11.1579C25.2767 11.1387 25.2842 11.1192 25.2908 11.0993C26.3453 8.52547 27.9032 6.18815 29.8731 4.22445ZM16.9439 7.14725L17.0054 6.97834L17.1743 7.03979C19.6693 7.94468 21.9682 9.31873 23.9467 11.0878C23.226 12.9697 22.7665 14.9415 22.5811 16.9481C20.5445 15.2566 18.2208 13.9443 15.7206 13.0737C15.8385 11.0493 16.2506 9.05288 16.9439 7.14725ZM8.25781 13.1032H8.4375C13.6374 13.0991 18.6512 15.0376 22.4959 18.5387C22.4923 18.7015 22.4837 18.8622 22.4837 19.0267C22.4697 24.6662 24.6189 30.0964 28.4885 34.1988C23.0641 34.0113 17.9241 31.7263 14.1506 27.825C10.3771 23.9237 8.26463 18.7105 8.25781 13.2829V13.1032ZM8.52555 33.336L8.51836 33.3288L8.52555 33.3216C10.1366 31.7056 12.0698 30.4468 14.1994 29.6272C18.2588 33.3659 23.57 35.4506 29.0886 35.4714C28.0308 36.1652 26.8964 36.7346 25.708 37.1684C25.643 37.1798 25.5804 37.2018 25.5226 37.2334C25.5176 37.2362 25.5129 37.2395 25.5085 37.2431C22.5972 38.2592 19.4579 38.4313 16.4529 37.7396C13.4479 37.048 10.6998 35.5208 8.52555 33.3342V33.336ZM30.1269 42.1126C30.1124 42.1328 30.0933 42.1493 30.0712 42.1606C30.0491 42.172 30.0247 42.1779 29.9998 42.1779C29.975 42.1779 29.9505 42.172 29.9284 42.1606C29.9063 42.1493 29.8873 42.1328 29.8728 42.1126C28.6736 40.9126 27.6246 39.5713 26.7491 38.1182C27.8901 37.652 28.9796 37.0685 30 36.377C31.0203 37.0686 32.1098 37.6522 33.2509 38.1182C32.3753 39.5714 31.3263 40.9127 30.1269 42.1126ZM51.4816 33.327L51.4745 33.3342C49.3003 35.5206 46.5523 37.0478 43.5474 37.7394C40.5426 38.4311 37.4034 38.259 34.4922 37.2431C34.4872 37.2402 34.4832 37.2363 34.4782 37.2338C34.4204 37.2025 34.3581 37.1805 34.2935 37.1687C33.1046 36.7349 31.9697 36.1654 30.9114 35.4714C36.4301 35.4505 41.7413 33.3656 45.8006 29.6269C47.9301 30.4459 49.8633 31.7041 51.4745 33.3195L51.4816 33.327ZM51.7422 13.2829C51.7353 18.7105 49.6227 23.9237 45.8491 27.8249C42.0756 31.7261 36.9356 34.011 31.5112 34.1985C35.3811 30.0962 37.5304 24.666 37.5163 19.0264C37.5163 18.8629 37.5077 18.7012 37.5041 18.5384C41.3488 15.0374 46.3627 13.099 51.5625 13.1032H51.7422V13.2829Z" stroke="#3D8DA8" stroke-width="0.6" mask="url(#path-2-outside-1_6398_15440)"/>
</g>
<defs>
<clipPath id="clip0_6398_15440">
<rect width="46" height="46" fill="white" transform="translate(7)"/>
</clipPath>
</defs>
</svg>
