<svg width="78" height="77" viewBox="0 0 78 77" fill="none" xmlns="http://www.w3.org/2000/svg">
<path d="M29.2219 75.2413H15.8958L15.1119 69.7483L2.80768 54.6939C1.63989 53.2651 1.00195 51.4765 1.00195 49.6312V36.849C1.00195 35.8199 1.46949 34.8465 2.27279 34.2031C3.73514 33.032 5.87018 33.2693 7.03979 34.7328L7.2438 34.9881C7.7702 35.6468 8.05695 36.4649 8.05695 37.3081V47.421C8.05695 50.0945 9.39214 52.5892 11.5955 54.1034C13.4922 55.4069 15.8464 57.0455 18.2475 58.7624C22.6373 61.9013 21.6443 58.5008 20.5992 56.4083L10.4086 50.1304C10.4086 45.4223 12.7603 46.2068 22.1669 49.3457C31.5736 52.4845 30.7897 67.9173 29.2219 75.2413Z" fill="#F1F8FA" stroke="#5ED5D9" stroke-width="2"/>
<path d="M47.782 75.2413H61.1081L61.892 69.7483L73.9705 54.9701C75.2843 53.3627 76.002 51.3505 76.002 49.2745V36.849C76.002 35.8199 75.5344 34.8465 74.7311 34.2031C73.2688 33.032 71.1337 33.2693 69.9641 34.7328L69.7601 34.9881C69.2337 35.6468 68.947 36.4649 68.947 37.3081V46.8861C68.947 49.8938 67.4441 52.7007 64.9673 54.407C63.1528 55.657 60.9746 57.1763 58.7564 58.7624C54.3666 61.9013 55.3596 58.5008 56.4047 56.4083L66.5953 50.1304C66.5953 45.4223 64.2436 46.2068 54.837 49.3457C45.4303 52.4845 46.2142 67.9173 47.782 75.2413Z" fill="#F1F8FA" stroke="#5ED5D9" stroke-width="2"/>
<path d="M37.7561 25.8965L19.948 15.4746C18.6295 14.703 18.6279 12.7977 19.9452 12.024L37.6902 1.60089C38.3209 1.23044 39.1035 1.23382 39.7309 1.60972L58.3137 12.7422C59.6532 13.5446 59.5976 15.5039 58.2148 16.2291L39.6952 25.9416C39.0843 26.2619 38.3515 26.2449 37.7561 25.8965Z" stroke="#3D8DA8" stroke-width="2"/>
<path d="M59.192 20.6584L41.3721 29.7041C40.7005 30.045 40.2773 30.7343 40.2773 31.4875V45.746C40.2773 47.2381 41.8522 48.2048 43.1826 47.5294L61.0026 38.4837C61.6742 38.1427 62.0973 37.4534 62.0973 36.7003V22.4418C62.0973 20.9497 60.5225 19.983 59.192 20.6584Z" stroke="#3D8DA8" stroke-width="2"/>
<path d="M34.9396 29.3111L18.5743 19.5374C17.2412 18.7412 15.5488 19.7017 15.5488 21.2544V35.708C15.5488 36.412 15.9189 37.0642 16.5233 37.4251L32.8886 47.1988C34.2217 47.995 35.9141 47.0345 35.9141 45.4817V31.0281C35.9141 30.3242 35.544 29.672 34.9396 29.3111Z" stroke="#3D8DA8" stroke-width="2"/>
</svg>
